<svg class="rich-terminal" viewBox="0 0 1238 342.79999999999995" xmlns="http://www.w3.org/2000/svg">
    <!-- Generated with Rich https://www.textualize.io -->
    <style>

    @font-face {
        font-family: "Fira Code";
        src: local("FiraCode-Regular"),
                url("https://cdnjs.cloudflare.com/ajax/libs/firacode/6.2.0/woff2/FiraCode-Regular.woff2") format("woff2"),
                url("https://cdnjs.cloudflare.com/ajax/libs/firacode/6.2.0/woff/FiraCode-Regular.woff") format("woff");
        font-style: normal;
        font-weight: 400;
    }
    @font-face {
        font-family: "Fira Code";
        src: local("FiraCode-Bold"),
                url("https://cdnjs.cloudflare.com/ajax/libs/firacode/6.2.0/woff2/FiraCode-Bold.woff2") format("woff2"),
                url("https://cdnjs.cloudflare.com/ajax/libs/firacode/6.2.0/woff/FiraCode-Bold.woff") format("woff");
        font-style: bold;
        font-weight: 700;
    }

    .terminal-930564404-matrix {
        font-family: Fira Code, monospace;
        font-size: 20px;
        line-height: 24.4px;
        font-variant-east-asian: full-width;
    }

    .terminal-930564404-title {
        font-size: 18px;
        font-weight: bold;
        font-family: arial;
    }

    .terminal-930564404-r1 { fill: #c5c8c6 }
.terminal-930564404-r2 { fill: #98729f;font-weight: bold }
.terminal-930564404-r3 { fill: #868887 }
.terminal-930564404-r4 { fill: #c5c8c6;font-weight: bold }
.terminal-930564404-r5 { fill: #4b4e55;font-weight: bold }
.terminal-930564404-r6 { fill: #4b4e55 }
    </style>

    <defs>
    <clipPath id="terminal-930564404-clip-terminal">
      <rect x="0" y="0" width="1219.0" height="291.79999999999995" />
    </clipPath>
    <clipPath id="terminal-930564404-line-0">
    <rect x="0" y="1.5" width="1220" height="24.65"/>
            </clipPath>
<clipPath id="terminal-930564404-line-1">
    <rect x="0" y="25.9" width="1220" height="24.65"/>
            </clipPath>
<clipPath id="terminal-930564404-line-2">
    <rect x="0" y="50.3" width="1220" height="24.65"/>
            </clipPath>
<clipPath id="terminal-930564404-line-3">
    <rect x="0" y="74.7" width="1220" height="24.65"/>
            </clipPath>
<clipPath id="terminal-930564404-line-4">
    <rect x="0" y="99.1" width="1220" height="24.65"/>
            </clipPath>
<clipPath id="terminal-930564404-line-5">
    <rect x="0" y="123.5" width="1220" height="24.65"/>
            </clipPath>
<clipPath id="terminal-930564404-line-6">
    <rect x="0" y="147.9" width="1220" height="24.65"/>
            </clipPath>
<clipPath id="terminal-930564404-line-7">
    <rect x="0" y="172.3" width="1220" height="24.65"/>
            </clipPath>
<clipPath id="terminal-930564404-line-8">
    <rect x="0" y="196.7" width="1220" height="24.65"/>
            </clipPath>
<clipPath id="terminal-930564404-line-9">
    <rect x="0" y="221.1" width="1220" height="24.65"/>
            </clipPath>
<clipPath id="terminal-930564404-line-10">
    <rect x="0" y="245.5" width="1220" height="24.65"/>
            </clipPath>
    </defs>

    <rect fill="#292929" stroke="rgba(255,255,255,0.35)" stroke-width="1" x="1" y="1" width="1236" height="340.8" rx="8"/><text class="terminal-930564404-title" fill="#c5c8c6" text-anchor="middle" x="618" y="27">CLI&#160;Startup&#160;Benchmarks</text>
            <g transform="translate(26,22)">
            <circle cx="0" cy="0" r="7" fill="#ff5f57"/>
            <circle cx="22" cy="0" r="7" fill="#febc2e"/>
            <circle cx="44" cy="0" r="7" fill="#28c840"/>
            </g>
        
    <g transform="translate(9, 41)" clip-path="url(#terminal-930564404-clip-terminal)">
    <rect fill="#ffd787" x="134.2" y="74.7" width="146.4" height="24.65" shape-rendering="crispEdges"/><rect fill="#ffd787" x="292.8" y="74.7" width="146.4" height="24.65" shape-rendering="crispEdges"/><rect fill="#ffd787" x="451.4" y="74.7" width="146.4" height="24.65" shape-rendering="crispEdges"/><rect fill="#ffd787" x="610" y="74.7" width="134.2" height="24.65" shape-rendering="crispEdges"/><rect fill="#afd7ff" x="756.4" y="74.7" width="146.4" height="24.65" shape-rendering="crispEdges"/><rect fill="#afd7ff" x="915" y="74.7" width="12.2" height="24.65" shape-rendering="crispEdges"/><rect fill="#afd7ff" x="927.2" y="74.7" width="109.8" height="24.65" shape-rendering="crispEdges"/><rect fill="#afd7ff" x="1037" y="74.7" width="12.2" height="24.65" shape-rendering="crispEdges"/><rect fill="#afd7ff" x="1061.4" y="74.7" width="146.4" height="24.65" shape-rendering="crispEdges"/><rect fill="#ffd787" x="134.2" y="99.1" width="146.4" height="24.65" shape-rendering="crispEdges"/><rect fill="#ffd787" x="292.8" y="99.1" width="12.2" height="24.65" shape-rendering="crispEdges"/><rect fill="#ffd787" x="305" y="99.1" width="122" height="24.65" shape-rendering="crispEdges"/><rect fill="#ffd787" x="427" y="99.1" width="12.2" height="24.65" shape-rendering="crispEdges"/><rect fill="#ffd787" x="451.4" y="99.1" width="146.4" height="24.65" shape-rendering="crispEdges"/><rect fill="#ffd787" x="610" y="99.1" width="134.2" height="24.65" shape-rendering="crispEdges"/><rect fill="#afd7ff" x="756.4" y="99.1" width="12.2" height="24.65" shape-rendering="crispEdges"/><rect fill="#afd7ff" x="768.6" y="99.1" width="122" height="24.65" shape-rendering="crispEdges"/><rect fill="#afd7ff" x="890.6" y="99.1" width="12.2" height="24.65" shape-rendering="crispEdges"/><rect fill="#afd7ff" x="915" y="99.1" width="12.2" height="24.65" shape-rendering="crispEdges"/><rect fill="#afd7ff" x="927.2" y="99.1" width="109.8" height="24.65" shape-rendering="crispEdges"/><rect fill="#afd7ff" x="1037" y="99.1" width="12.2" height="24.65" shape-rendering="crispEdges"/><rect fill="#afd7ff" x="1061.4" y="99.1" width="12.2" height="24.65" shape-rendering="crispEdges"/><rect fill="#afd7ff" x="1073.6" y="99.1" width="122" height="24.65" shape-rendering="crispEdges"/><rect fill="#afd7ff" x="1195.6" y="99.1" width="12.2" height="24.65" shape-rendering="crispEdges"/><rect fill="#ffd787" x="134.2" y="123.5" width="12.2" height="24.65" shape-rendering="crispEdges"/><rect fill="#ffd787" x="146.4" y="123.5" width="122" height="24.65" shape-rendering="crispEdges"/><rect fill="#ffd787" x="268.4" y="123.5" width="12.2" height="24.65" shape-rendering="crispEdges"/><rect fill="#ffd787" x="292.8" y="123.5" width="12.2" height="24.65" shape-rendering="crispEdges"/><rect fill="#ffd787" x="305" y="123.5" width="122" height="24.65" shape-rendering="crispEdges"/><rect fill="#ffd787" x="427" y="123.5" width="12.2" height="24.65" shape-rendering="crispEdges"/><rect fill="#ffd787" x="451.4" y="123.5" width="12.2" height="24.65" shape-rendering="crispEdges"/><rect fill="#ffd787" x="463.6" y="123.5" width="122" height="24.65" shape-rendering="crispEdges"/><rect fill="#ffd787" x="585.6" y="123.5" width="12.2" height="24.65" shape-rendering="crispEdges"/><rect fill="#ffd787" x="610" y="123.5" width="12.2" height="24.65" shape-rendering="crispEdges"/><rect fill="#ffd787" x="622.2" y="123.5" width="109.8" height="24.65" shape-rendering="crispEdges"/><rect fill="#ffd787" x="732" y="123.5" width="12.2" height="24.65" shape-rendering="crispEdges"/><rect fill="#afd7ff" x="756.4" y="123.5" width="12.2" height="24.65" shape-rendering="crispEdges"/><rect fill="#afd7ff" x="768.6" y="123.5" width="122" height="24.65" shape-rendering="crispEdges"/><rect fill="#afd7ff" x="890.6" y="123.5" width="12.2" height="24.65" shape-rendering="crispEdges"/><rect fill="#afd7ff" x="915" y="123.5" width="12.2" height="24.65" shape-rendering="crispEdges"/><rect fill="#afd7ff" x="927.2" y="123.5" width="109.8" height="24.65" shape-rendering="crispEdges"/><rect fill="#afd7ff" x="1037" y="123.5" width="12.2" height="24.65" shape-rendering="crispEdges"/><rect fill="#afd7ff" x="1061.4" y="123.5" width="12.2" height="24.65" shape-rendering="crispEdges"/><rect fill="#afd7ff" x="1073.6" y="123.5" width="122" height="24.65" shape-rendering="crispEdges"/><rect fill="#afd7ff" x="1195.6" y="123.5" width="12.2" height="24.65" shape-rendering="crispEdges"/><rect fill="#ffd787" x="134.2" y="147.9" width="12.2" height="24.65" shape-rendering="crispEdges"/><rect fill="#ffd787" x="146.4" y="147.9" width="122" height="24.65" shape-rendering="crispEdges"/><rect fill="#ffd787" x="268.4" y="147.9" width="12.2" height="24.65" shape-rendering="crispEdges"/><rect fill="#ffd787" x="292.8" y="147.9" width="12.2" height="24.65" shape-rendering="crispEdges"/><rect fill="#ffd787" x="305" y="147.9" width="122" height="24.65" shape-rendering="crispEdges"/><rect fill="#ffd787" x="427" y="147.9" width="12.2" height="24.65" shape-rendering="crispEdges"/><rect fill="#ffd787" x="451.4" y="147.9" width="12.2" height="24.65" shape-rendering="crispEdges"/><rect fill="#ffd787" x="463.6" y="147.9" width="122" height="24.65" shape-rendering="crispEdges"/><rect fill="#ffd787" x="585.6" y="147.9" width="12.2" height="24.65" shape-rendering="crispEdges"/><rect fill="#ffd787" x="610" y="147.9" width="12.2" height="24.65" shape-rendering="crispEdges"/><rect fill="#ffd787" x="622.2" y="147.9" width="109.8" height="24.65" shape-rendering="crispEdges"/><rect fill="#ffd787" x="732" y="147.9" width="12.2" height="24.65" shape-rendering="crispEdges"/><rect fill="#afd7ff" x="756.4" y="147.9" width="12.2" height="24.65" shape-rendering="crispEdges"/><rect fill="#afd7ff" x="768.6" y="147.9" width="122" height="24.65" shape-rendering="crispEdges"/><rect fill="#afd7ff" x="890.6" y="147.9" width="12.2" height="24.65" shape-rendering="crispEdges"/><rect fill="#afd7ff" x="915" y="147.9" width="12.2" height="24.65" shape-rendering="crispEdges"/><rect fill="#afd7ff" x="927.2" y="147.9" width="109.8" height="24.65" shape-rendering="crispEdges"/><rect fill="#afd7ff" x="1037" y="147.9" width="12.2" height="24.65" shape-rendering="crispEdges"/><rect fill="#afd7ff" x="1061.4" y="147.9" width="12.2" height="24.65" shape-rendering="crispEdges"/><rect fill="#afd7ff" x="1073.6" y="147.9" width="122" height="24.65" shape-rendering="crispEdges"/><rect fill="#afd7ff" x="1195.6" y="147.9" width="12.2" height="24.65" shape-rendering="crispEdges"/><rect fill="#3a3a3a" x="12.2" y="196.7" width="12.2" height="24.65" shape-rendering="crispEdges"/><rect fill="#3a3a3a" x="24.4" y="196.7" width="85.4" height="24.65" shape-rendering="crispEdges"/><rect fill="#3a3a3a" x="109.8" y="196.7" width="12.2" height="24.65" shape-rendering="crispEdges"/><rect fill="#ffd787" x="134.2" y="196.7" width="12.2" height="24.65" shape-rendering="crispEdges"/><rect fill="#ffd787" x="146.4" y="196.7" width="122" height="24.65" shape-rendering="crispEdges"/><rect fill="#ffd787" x="268.4" y="196.7" width="12.2" height="24.65" shape-rendering="crispEdges"/><rect fill="#ffd787" x="292.8" y="196.7" width="12.2" height="24.65" shape-rendering="crispEdges"/><rect fill="#ffd787" x="305" y="196.7" width="122" height="24.65" shape-rendering="crispEdges"/><rect fill="#ffd787" x="427" y="196.7" width="12.2" height="24.65" shape-rendering="crispEdges"/><rect fill="#ffd787" x="451.4" y="196.7" width="12.2" height="24.65" shape-rendering="crispEdges"/><rect fill="#ffd787" x="463.6" y="196.7" width="122" height="24.65" shape-rendering="crispEdges"/><rect fill="#ffd787" x="585.6" y="196.7" width="12.2" height="24.65" shape-rendering="crispEdges"/><rect fill="#ffd787" x="610" y="196.7" width="12.2" height="24.65" shape-rendering="crispEdges"/><rect fill="#ffd787" x="622.2" y="196.7" width="109.8" height="24.65" shape-rendering="crispEdges"/><rect fill="#ffd787" x="732" y="196.7" width="12.2" height="24.65" shape-rendering="crispEdges"/><rect fill="#afd7ff" x="756.4" y="196.7" width="12.2" height="24.65" shape-rendering="crispEdges"/><rect fill="#afd7ff" x="768.6" y="196.7" width="122" height="24.65" shape-rendering="crispEdges"/><rect fill="#afd7ff" x="890.6" y="196.7" width="12.2" height="24.65" shape-rendering="crispEdges"/><rect fill="#afd7ff" x="915" y="196.7" width="12.2" height="24.65" shape-rendering="crispEdges"/><rect fill="#afd7ff" x="927.2" y="196.7" width="109.8" height="24.65" shape-rendering="crispEdges"/><rect fill="#afd7ff" x="1037" y="196.7" width="12.2" height="24.65" shape-rendering="crispEdges"/><rect fill="#afd7ff" x="1061.4" y="196.7" width="12.2" height="24.65" shape-rendering="crispEdges"/><rect fill="#afd7ff" x="1073.6" y="196.7" width="122" height="24.65" shape-rendering="crispEdges"/><rect fill="#afd7ff" x="1195.6" y="196.7" width="12.2" height="24.65" shape-rendering="crispEdges"/><rect fill="#3a3a3a" x="12.2" y="221.1" width="12.2" height="24.65" shape-rendering="crispEdges"/><rect fill="#3a3a3a" x="24.4" y="221.1" width="85.4" height="24.65" shape-rendering="crispEdges"/><rect fill="#3a3a3a" x="109.8" y="221.1" width="12.2" height="24.65" shape-rendering="crispEdges"/><rect fill="#ffd787" x="134.2" y="221.1" width="12.2" height="24.65" shape-rendering="crispEdges"/><rect fill="#ffd787" x="146.4" y="221.1" width="122" height="24.65" shape-rendering="crispEdges"/><rect fill="#ffd787" x="268.4" y="221.1" width="12.2" height="24.65" shape-rendering="crispEdges"/><rect fill="#ffd787" x="292.8" y="221.1" width="12.2" height="24.65" shape-rendering="crispEdges"/><rect fill="#ffd787" x="305" y="221.1" width="122" height="24.65" shape-rendering="crispEdges"/><rect fill="#ffd787" x="427" y="221.1" width="12.2" height="24.65" shape-rendering="crispEdges"/><rect fill="#ffd787" x="451.4" y="221.1" width="12.2" height="24.65" shape-rendering="crispEdges"/><rect fill="#ffd787" x="463.6" y="221.1" width="122" height="24.65" shape-rendering="crispEdges"/><rect fill="#ffd787" x="585.6" y="221.1" width="12.2" height="24.65" shape-rendering="crispEdges"/><rect fill="#ffd787" x="610" y="221.1" width="12.2" height="24.65" shape-rendering="crispEdges"/><rect fill="#ffd787" x="622.2" y="221.1" width="109.8" height="24.65" shape-rendering="crispEdges"/><rect fill="#ffd787" x="732" y="221.1" width="12.2" height="24.65" shape-rendering="crispEdges"/><rect fill="#afd7ff" x="756.4" y="221.1" width="12.2" height="24.65" shape-rendering="crispEdges"/><rect fill="#afd7ff" x="768.6" y="221.1" width="122" height="24.65" shape-rendering="crispEdges"/><rect fill="#afd7ff" x="890.6" y="221.1" width="12.2" height="24.65" shape-rendering="crispEdges"/><rect fill="#afd7ff" x="915" y="221.1" width="12.2" height="24.65" shape-rendering="crispEdges"/><rect fill="#afd7ff" x="927.2" y="221.1" width="109.8" height="24.65" shape-rendering="crispEdges"/><rect fill="#afd7ff" x="1037" y="221.1" width="12.2" height="24.65" shape-rendering="crispEdges"/><rect fill="#afd7ff" x="1061.4" y="221.1" width="12.2" height="24.65" shape-rendering="crispEdges"/><rect fill="#afd7ff" x="1073.6" y="221.1" width="122" height="24.65" shape-rendering="crispEdges"/><rect fill="#afd7ff" x="1195.6" y="221.1" width="12.2" height="24.65" shape-rendering="crispEdges"/><rect fill="#3a3a3a" x="12.2" y="245.5" width="12.2" height="24.65" shape-rendering="crispEdges"/><rect fill="#3a3a3a" x="24.4" y="245.5" width="85.4" height="24.65" shape-rendering="crispEdges"/><rect fill="#3a3a3a" x="109.8" y="245.5" width="12.2" height="24.65" shape-rendering="crispEdges"/><rect fill="#ffd787" x="134.2" y="245.5" width="12.2" height="24.65" shape-rendering="crispEdges"/><rect fill="#ffd787" x="146.4" y="245.5" width="122" height="24.65" shape-rendering="crispEdges"/><rect fill="#ffd787" x="268.4" y="245.5" width="12.2" height="24.65" shape-rendering="crispEdges"/><rect fill="#ffd787" x="292.8" y="245.5" width="12.2" height="24.65" shape-rendering="crispEdges"/><rect fill="#ffd787" x="305" y="245.5" width="122" height="24.65" shape-rendering="crispEdges"/><rect fill="#ffd787" x="427" y="245.5" width="12.2" height="24.65" shape-rendering="crispEdges"/><rect fill="#ffd787" x="451.4" y="245.5" width="12.2" height="24.65" shape-rendering="crispEdges"/><rect fill="#ffd787" x="463.6" y="245.5" width="122" height="24.65" shape-rendering="crispEdges"/><rect fill="#ffd787" x="585.6" y="245.5" width="12.2" height="24.65" shape-rendering="crispEdges"/><rect fill="#ffd787" x="610" y="245.5" width="12.2" height="24.65" shape-rendering="crispEdges"/><rect fill="#ffd787" x="622.2" y="245.5" width="109.8" height="24.65" shape-rendering="crispEdges"/><rect fill="#ffd787" x="732" y="245.5" width="12.2" height="24.65" shape-rendering="crispEdges"/><rect fill="#afd7ff" x="756.4" y="245.5" width="12.2" height="24.65" shape-rendering="crispEdges"/><rect fill="#afd7ff" x="768.6" y="245.5" width="122" height="24.65" shape-rendering="crispEdges"/><rect fill="#afd7ff" x="890.6" y="245.5" width="12.2" height="24.65" shape-rendering="crispEdges"/><rect fill="#afd7ff" x="915" y="245.5" width="12.2" height="24.65" shape-rendering="crispEdges"/><rect fill="#afd7ff" x="927.2" y="245.5" width="109.8" height="24.65" shape-rendering="crispEdges"/><rect fill="#afd7ff" x="1037" y="245.5" width="12.2" height="24.65" shape-rendering="crispEdges"/><rect fill="#afd7ff" x="1061.4" y="245.5" width="12.2" height="24.65" shape-rendering="crispEdges"/><rect fill="#afd7ff" x="1073.6" y="245.5" width="122" height="24.65" shape-rendering="crispEdges"/><rect fill="#afd7ff" x="1195.6" y="245.5" width="12.2" height="24.65" shape-rendering="crispEdges"/>
    <g class="terminal-930564404-matrix">
    <text class="terminal-930564404-r2" x="439.2" y="20" textLength="341.6" clip-path="url(#terminal-930564404-line-0)">darwin&#160;|&#160;arm64&#160;|&#160;Python&#160;3.13</text><text class="terminal-930564404-r1" x="1220" y="20" textLength="12.2" clip-path="url(#terminal-930564404-line-0)">
</text><text class="terminal-930564404-r3" x="329.4" y="44.4" textLength="536.8" clip-path="url(#terminal-930564404-line-1)">django-typer&#160;3.3.0&#160;|&#160;Typer&#160;0.17&#160;|&#160;Django&#160;5.2</text><text class="terminal-930564404-r1" x="1220" y="44.4" textLength="12.2" clip-path="url(#terminal-930564404-line-1)">
</text><text class="terminal-930564404-r1" x="1220" y="68.8" textLength="12.2" clip-path="url(#terminal-930564404-line-2)">
</text><text class="terminal-930564404-r5" x="927.2" y="93.2" textLength="109.8" clip-path="url(#terminal-930564404-line-3)">&#160;&#160;polls&#160;&#160;</text><text class="terminal-930564404-r1" x="1220" y="93.2" textLength="12.2" clip-path="url(#terminal-930564404-line-3)">
</text><text class="terminal-930564404-r5" x="305" y="117.6" textLength="122" clip-path="url(#terminal-930564404-line-4)">&#160;&#160;polls&#160;&#160;&#160;</text><text class="terminal-930564404-r5" x="768.6" y="117.6" textLength="122" clip-path="url(#terminal-930564404-line-4)">&#160;&#160;polls&#160;&#160;&#160;</text><text class="terminal-930564404-r5" x="927.2" y="117.6" textLength="109.8" clip-path="url(#terminal-930564404-line-4)">&#160;--help&#160;&#160;</text><text class="terminal-930564404-r5" x="1073.6" y="117.6" textLength="122" clip-path="url(#terminal-930564404-line-4)">&#160;&#160;shell&#160;&#160;&#160;</text><text class="terminal-930564404-r1" x="1220" y="117.6" textLength="12.2" clip-path="url(#terminal-930564404-line-4)">
</text><text class="terminal-930564404-r5" x="146.4" y="142" textLength="122" clip-path="url(#terminal-930564404-line-5)">&#160;&#160;polls&#160;&#160;&#160;</text><text class="terminal-930564404-r5" x="305" y="142" textLength="122" clip-path="url(#terminal-930564404-line-5)">&#160;&#160;--help&#160;&#160;</text><text class="terminal-930564404-r5" x="463.6" y="142" textLength="122" clip-path="url(#terminal-930564404-line-5)">&#160;&#160;polls&#160;&#160;&#160;</text><text class="terminal-930564404-r5" x="622.2" y="142" textLength="109.8" clip-path="url(#terminal-930564404-line-5)">&#160;&#160;shell&#160;&#160;</text><text class="terminal-930564404-r5" x="768.6" y="142" textLength="122" clip-path="url(#terminal-930564404-line-5)">&#160;&#160;(typer&#160;&#160;</text><text class="terminal-930564404-r5" x="927.2" y="142" textLength="109.8" clip-path="url(#terminal-930564404-line-5)">&#160;(typer&#160;&#160;</text><text class="terminal-930564404-r5" x="1073.6" y="142" textLength="122" clip-path="url(#terminal-930564404-line-5)">completion</text><text class="terminal-930564404-r1" x="1220" y="142" textLength="12.2" clip-path="url(#terminal-930564404-line-5)">
</text><text class="terminal-930564404-r5" x="146.4" y="166.4" textLength="122" clip-path="url(#terminal-930564404-line-6)">(tutorial)</text><text class="terminal-930564404-r5" x="305" y="166.4" textLength="122" clip-path="url(#terminal-930564404-line-6)">(tutorial)</text><text class="terminal-930564404-r5" x="463.6" y="166.4" textLength="122" clip-path="url(#terminal-930564404-line-6)">&#160;(typer)&#160;&#160;</text><text class="terminal-930564404-r5" x="622.2" y="166.4" textLength="109.8" clip-path="url(#terminal-930564404-line-6)">completi…</text><text class="terminal-930564404-r5" x="768.6" y="166.4" textLength="122" clip-path="url(#terminal-930564404-line-6)">&#160;w/rich)&#160;&#160;</text><text class="terminal-930564404-r5" x="927.2" y="166.4" textLength="109.8" clip-path="url(#terminal-930564404-line-6)">&#160;w/rich)&#160;</text><text class="terminal-930564404-r5" x="1073.6" y="166.4" textLength="122" clip-path="url(#terminal-930564404-line-6)">&#160;&#160;(rich)&#160;&#160;</text><text class="terminal-930564404-r1" x="1220" y="166.4" textLength="12.2" clip-path="url(#terminal-930564404-line-6)">
</text><text class="terminal-930564404-r1" x="0" y="190.8" textLength="1220" clip-path="url(#terminal-930564404-line-7)">&#160;━━━━━━━━━━━━━━━━━━━━━━━━━━━━━━━━━━━━━━━━━━━━━━━━━━━━━━━━━━━━━━━━━━━━━━━━━━━━━━━━━━━━━━━━━━━━━━━━━━&#160;</text><text class="terminal-930564404-r1" x="1220" y="190.8" textLength="12.2" clip-path="url(#terminal-930564404-line-7)">
</text><text class="terminal-930564404-r4" x="24.4" y="215.2" textLength="85.4" clip-path="url(#terminal-930564404-line-8)">modules</text><text class="terminal-930564404-r6" x="146.4" y="215.2" textLength="122" clip-path="url(#terminal-930564404-line-8)">&#160;&#160;&#160;573&#160;&#160;&#160;&#160;</text><text class="terminal-930564404-r6" x="305" y="215.2" textLength="122" clip-path="url(#terminal-930564404-line-8)">&#160;&#160;&#160;551&#160;&#160;&#160;&#160;</text><text class="terminal-930564404-r6" x="463.6" y="215.2" textLength="122" clip-path="url(#terminal-930564404-line-8)">&#160;&#160;&#160;615&#160;&#160;&#160;&#160;</text><text class="terminal-930564404-r6" x="622.2" y="215.2" textLength="109.8" clip-path="url(#terminal-930564404-line-8)">&#160;&#160;&#160;606&#160;&#160;&#160;</text><text class="terminal-930564404-r6" x="768.6" y="215.2" textLength="122" clip-path="url(#terminal-930564404-line-8)">&#160;&#160;&#160;768&#160;&#160;&#160;&#160;</text><text class="terminal-930564404-r6" x="927.2" y="215.2" textLength="109.8" clip-path="url(#terminal-930564404-line-8)">&#160;&#160;&#160;747&#160;&#160;&#160;</text><text class="terminal-930564404-r6" x="1073.6" y="215.2" textLength="122" clip-path="url(#terminal-930564404-line-8)">&#160;&#160;&#160;755&#160;&#160;&#160;&#160;</text><text class="terminal-930564404-r1" x="1220" y="215.2" textLength="12.2" clip-path="url(#terminal-930564404-line-8)">
</text><text class="terminal-930564404-r4" x="24.4" y="239.6" textLength="85.4" clip-path="url(#terminal-930564404-line-9)">time&#160;&#160;&#160;</text><text class="terminal-930564404-r6" x="146.4" y="239.6" textLength="122" clip-path="url(#terminal-930564404-line-9)">&#160;&#160;&#160;0.15&#160;&#160;&#160;</text><text class="terminal-930564404-r6" x="305" y="239.6" textLength="122" clip-path="url(#terminal-930564404-line-9)">&#160;&#160;&#160;0.15&#160;&#160;&#160;</text><text class="terminal-930564404-r6" x="463.6" y="239.6" textLength="122" clip-path="url(#terminal-930564404-line-9)">&#160;&#160;&#160;0.17&#160;&#160;&#160;</text><text class="terminal-930564404-r6" x="622.2" y="239.6" textLength="109.8" clip-path="url(#terminal-930564404-line-9)">&#160;&#160;0.20&#160;&#160;&#160;</text><text class="terminal-930564404-r6" x="768.6" y="239.6" textLength="122" clip-path="url(#terminal-930564404-line-9)">&#160;&#160;&#160;0.24&#160;&#160;&#160;</text><text class="terminal-930564404-r6" x="927.2" y="239.6" textLength="109.8" clip-path="url(#terminal-930564404-line-9)">&#160;&#160;0.22&#160;&#160;&#160;</text><text class="terminal-930564404-r6" x="1073.6" y="239.6" textLength="122" clip-path="url(#terminal-930564404-line-9)">&#160;&#160;&#160;0.27&#160;&#160;&#160;</text><text class="terminal-930564404-r1" x="1220" y="239.6" textLength="12.2" clip-path="url(#terminal-930564404-line-9)">
</text><text class="terminal-930564404-r4" x="24.4" y="264" textLength="85.4" clip-path="url(#terminal-930564404-line-10)">imports</text><text class="terminal-930564404-r6" x="146.4" y="264" textLength="122" clip-path="url(#terminal-930564404-line-10)">&#160;&#160;&#160;0.11&#160;&#160;&#160;</text><text class="terminal-930564404-r6" x="305" y="264" textLength="122" clip-path="url(#terminal-930564404-line-10)">&#160;&#160;&#160;0.10&#160;&#160;&#160;</text><text class="terminal-930564404-r6" x="463.6" y="264" textLength="122" clip-path="url(#terminal-930564404-line-10)">&#160;&#160;&#160;0.12&#160;&#160;&#160;</text><text class="terminal-930564404-r6" x="622.2" y="264" textLength="109.8" clip-path="url(#terminal-930564404-line-10)">&#160;&#160;0.12&#160;&#160;&#160;</text><text class="terminal-930564404-r6" x="768.6" y="264" textLength="122" clip-path="url(#terminal-930564404-line-10)">&#160;&#160;&#160;0.16&#160;&#160;&#160;</text><text class="terminal-930564404-r6" x="927.2" y="264" textLength="109.8" clip-path="url(#terminal-930564404-line-10)">&#160;&#160;0.15&#160;&#160;&#160;</text><text class="terminal-930564404-r6" x="1073.6" y="264" textLength="122" clip-path="url(#terminal-930564404-line-10)">&#160;&#160;&#160;0.15&#160;&#160;&#160;</text><text class="terminal-930564404-r1" x="1220" y="264" textLength="12.2" clip-path="url(#terminal-930564404-line-10)">
</text><text class="terminal-930564404-r1" x="1220" y="288.4" textLength="12.2" clip-path="url(#terminal-930564404-line-11)">
</text>
    </g>
    </g>
</svg>
